<?xml version="1.0"?>
<svg xmlns="http://www.w3.org/2000/svg" xmlns:xlink="http://www.w3.org/1999/xlink" viewBox="0 0 512 512" width="512" height="512"><linearGradient id="a" gradientUnits="userSpaceOnUse" x1="255.979" x2="255.979" y1="8" y2="512.892"><stop offset="0" stop-color="#00efd1"/><stop offset="1" stop-color="#00acea"/></linearGradient><linearGradient id="b" x1="228.398" x2="228.398" xlink:href="#a" y1="8" y2="512.892"/><path d="m475.473 77.039a10 10 0 0 0 -9.318 2.673l-30.25 30.251-32.141-32.4 30.359-30.359a10 10 0 0 0 -3.667-16.474c-31.074-11.249-66.44-3.265-90.125 20.362a85.749 85.749 0 0 0 -24.167 47.792l-48.049-18.56-21.536 24.976a184.527 184.527 0 0 0 -46.163 1.206l-22.969-23.962-64.832 28.384 2.435 33.2a166.877 166.877 0 0 0 -31.859 33.472l-33.217-.939-25.458 66.006 24.97 21.585a183.86 183.86 0 0 0 1.205 46.122l-23.964 22.967 28.384 64.832 33.189-2.435a167.249 167.249 0 0 0 33.469 31.893l-.995 33.175 66.076 25.526 21.591-25.032a184.2 184.2 0 0 0 46.121-1.158l22.966 23.907 64.827-28.317-2.434-33.25a165.339 165.339 0 0 0 31.862-33.47l33.217.998 25.461-66.082-24.977-21.528a186.069 186.069 0 0 0 -1.166-46.159l23.921-22.98-15.39-35.179a87.151 87.151 0 0 0 49.431-24.639c23.227-23.227 31.234-58.522 20.4-89.918a10 10 0 0 0 -7.207-6.486zm-92.681 172.144.958 5.28a166.278 166.278 0 0 1 1.286 50.793l-.681 5.33 22.376 19.292-15.3 39.717-30.042-.9-3.074 4.628a145.532 145.532 0 0 1 -34.715 36.477l-4.422 3.276 2.2 30-39.08 17.07-20.7-21.551-5.295.977a164.283 164.283 0 0 1 -50.709 1.281l-5.331-.682-19.348 22.429-39.721-15.344.9-29.97-4.594-3.086a147.453 147.453 0 0 1 -36.511-34.786l-3.278-4.414-29.953 2.2-17.108-39.084 21.6-20.7-.982-5.306a163.939 163.939 0 0 1 -1.333-50.7l.681-5.324-22.377-19.349 15.306-39.686 30.036.85 3.07-4.606a147.076 147.076 0 0 1 34.734-36.5l4.407-3.277-2.192-29.943 39.075-17.108 20.7 21.6 5.3-.979a164.689 164.689 0 0 1 50.765-1.333l5.331.68 19.288-22.37 41.441 16.005a88.459 88.459 0 0 0 2.592 14.889l-37.226 37.269a123.216 123.216 0 1 0 59.434 61.435l38.043-37.874a87.951 87.951 0 0 0 12.769 2.506l13.212 30.2zm-80.277 22.057 22.36-22.232a103.344 103.344 0 1 1 -59.185-61.615l-23.534 23.5c-24.787-4.574-49.566 2.912-67.234 20.58a74.914 74.914 0 0 0 -22.076 53.327 76.054 76.054 0 0 0 22.076 53.64 74.918 74.918 0 0 0 53.326 22.076 76.057 76.057 0 0 0 53.64-22.076c17.643-17.64 25.147-42.407 20.627-67.2zm145.622-111.94a66.825 66.825 0 0 1 -49.755 19.566 68 68 0 0 1 -19.465-3.848 10 10 0 0 0 -10.4 2.337l-47.537 47.326-36.456 36.247a10 10 0 0 0 -2.633 9.587c5.087 19.735-.2 39.842-14.087 53.728-21.9 21.547-57.224 21.572-78.681.115-21.547-21.9-21.573-57.223-.057-78.738a54.638 54.638 0 0 1 38.904-16.02 59 59 0 0 1 14.859 1.923 10 10 0 0 0 9.583-2.6l37.14-37.087.009-.009 46.91-46.963a10 10 0 0 0 2.381-10.321 68.653 68.653 0 0 1 -3.711-21.961 66.088 66.088 0 0 1 19.336-47.343 66.853 66.853 0 0 1 52.644-19.309l-24.542 24.537a10 10 0 0 0 -.029 14.114l46.228 46.529a9.917 9.917 0 0 0 7.079 2.89h.02a9.934 9.934 0 0 0 7.071-2.863l24.311-24.278a67.093 67.093 0 0 1 -19.122 52.441z" fill="url(#a)"/><path d="m228.475 252.291a32.667 32.667 0 0 0 -23.19 55.786 32.35 32.35 0 0 0 22.98 9.567 33.317 33.317 0 0 0 23.112-9.424l.125-.122a32.667 32.667 0 0 0 -23.028-55.807zm8.989 41.562c-5.3 5.033-13.043 5.075-18.037.082a13.048 13.048 0 0 1 0-18.1 12.762 12.762 0 0 1 9-3.835h.02a12.906 12.906 0 0 1 9.02 21.853z" fill="url(#b)"/></svg>
